<svg width="60" height="60" viewBox="0 0 60 60" fill="none" xmlns="http://www.w3.org/2000/svg">
<path d="M10.7501 11.5437C13.3833 10.115 16.9213 9.33564 21.4714 9.1203C21.4899 9.13645 21.5102 9.1554 21.5317 9.17732C21.6407 9.28809 21.7278 9.4187 21.781 9.54648V12.6435V12.7008L21.7854 12.7579C21.7862 12.7684 21.7859 12.7926 21.7731 12.8326C21.7668 12.8523 21.7582 12.8733 21.7476 12.8945C18.2402 12.9753 14.3842 14.4577 11.9912 17.1575C10.7177 18.5943 9.84682 20.395 9.72015 22.4949C9.59376 24.5903 10.2162 26.8465 11.6889 29.1913L12.1299 29.8935H12.9591H23.3865C24.6355 29.8935 25.6365 30.8945 25.6365 32.1435V48.6435C25.6365 49.8926 24.6356 50.8935 23.3865 50.8935H6.9943C5.74521 50.8935 4.7443 49.8926 4.7443 48.6435V32.1435V32.1315H4.74433L4.74427 32.1215C4.70827 26.7231 4.71016 21.3761 5.31913 18.1212C6.33287 15.0641 8.13356 12.9634 10.7501 11.5437Z" stroke="#05848C" stroke-width="3"/>
<path d="M40.3819 11.5437C43.0152 10.115 46.5531 9.33564 51.1032 9.1203C51.1217 9.13645 51.142 9.1554 51.1636 9.17732C51.2725 9.2881 51.3597 9.4187 51.4128 9.54648V12.6435V12.7008L51.4172 12.7579C51.418 12.7684 51.4177 12.7926 51.4049 12.8326C51.3986 12.8523 51.39 12.8733 51.3795 12.8945C47.8721 12.9753 44.016 14.4577 41.623 17.1575C40.3495 18.5943 39.4787 20.395 39.352 22.4949C39.2256 24.5903 39.848 26.8465 41.3207 29.1913L41.7618 29.8935H42.591H53.0183C54.2674 29.8935 55.2683 30.8945 55.2683 32.1435V48.6435C55.2683 49.8926 54.2674 50.8935 53.0183 50.8935H36.6261C35.377 50.8935 34.3761 49.8926 34.3761 48.6435V32.1435V32.1315H34.3762L34.3761 32.1215C34.3401 26.7231 34.342 21.3761 34.951 18.1212C35.9647 15.0641 37.7654 12.9634 40.3819 11.5437Z" stroke="#05848C" stroke-width="3"/>
</svg>
